HIERARCHY
ROOT Hips
{
	OFFSET 0.000000 0.000000 0.000000
	CHANNELS 6 Xposition Yposition Zposition Xrotation Yrotation Zrotation
	JOINT LeftUpLeg_virtual
	{
		OFFSET 0.000000 0.000000 0.000000
		CHANNELS 3 Xrotation Yrotation Zrotation
		JOINT LeftUpLeg
		{
			OFFSET 10.205400 -3.823500 0.155100
			CHANNELS 3 Xrotation Yrotation Zrotation
			JOINT LeftLeg
			{
				OFFSET 0.708757 -12.982077 0.567790
				CHANNELS 3 Xrotation Yrotation Zrotation
				JOINT LeftFoot
				{
					OFFSET -0.708756 -10.717838 -2.184338
					CHANNELS 3 Xrotation Yrotation Zrotation
					JOINT LeftToeBase
					{
						OFFSET 0.108149 -7.191104 7.560241
						CHANNELS 3 Xrotation Yrotation Zrotation
						JOINT LeftToe_End
						{
							OFFSET 0.070230 0.081724 4.490308
							CHANNELS 3 Xrotation Yrotation Zrotation
							End Site
							{
								OFFSET 0 0 0
							}
						}
					}
				}
			}
		}
	}
	JOINT RightUpLeg_virtual
	{
		OFFSET 0.000000 0.000000 0.000000
		CHANNELS 3 Xrotation Yrotation Zrotation
		JOINT RightUpLeg
		{
			OFFSET -10.205400 -3.823500 0.005500
			CHANNELS 3 Xrotation Yrotation Zrotation
			JOINT RightLeg
			{
				OFFSET -0.708756 -12.982134 0.610632
				CHANNELS 3 Xrotation Yrotation Zrotation
				JOINT RightFoot
				{
					OFFSET 0.708754 -10.717769 -1.945823
					CHANNELS 3 Xrotation Yrotation Zrotation
					JOINT RightToeBase
					{
						OFFSET -0.108140 -7.191069 7.372968
						CHANNELS 3 Xrotation Yrotation Zrotation
						JOINT RightToe_End
						{
							OFFSET -0.070227 0.081735 4.479403
							CHANNELS 3 Xrotation Yrotation Zrotation
							End Site
							{
								OFFSET 0 0 0
							}
						}
					}
				}
			}
		}
	}
	JOINT Spine_virtual
	{
		OFFSET 0.000000 0.000000 0.000000
		CHANNELS 3 Xrotation Yrotation Zrotation
		JOINT Spine
		{
			OFFSET 0.000000 6.876099 0.125700
			CHANNELS 3 Xrotation Yrotation Zrotation
			JOINT Spine1
			{
				OFFSET 0.000000 5.730043 0.104720
				CHANNELS 3 Xrotation Yrotation Zrotation
				JOINT Spine1_split
				{
					OFFSET 0.000000 5.730043 0.104720
					CHANNELS 3 Xrotation Yrotation Zrotation
					JOINT Spine2
					{
						OFFSET 0.000000 5.730043 0.104720
						CHANNELS 3 Xrotation Yrotation Zrotation
						JOINT Neck_virtual
						{
							OFFSET 0.000000 0.000000 0.000000
							CHANNELS 3 Xrotation Yrotation Zrotation
							JOINT Neck
							{
								OFFSET 0.000000 10.314075 0.188496
								CHANNELS 3 Xrotation Yrotation Zrotation
								JOINT Head
								{
									OFFSET 0.000000 7.643700 -2.377400
									CHANNELS 3 Xrotation Yrotation Zrotation
									JOINT HeadTop_End
									{
										OFFSET 0.000000 43.788605 -13.619600
										CHANNELS 3 Xrotation Yrotation Zrotation
										End Site
										{
											OFFSET 0 0 0
										}
									}
								}
							}
						}
						JOINT LeftShoulder_virtual
						{
							OFFSET 0.000000 0.000000 0.000000
							CHANNELS 3 Xrotation Yrotation Zrotation
							JOINT LeftShoulder
							{
								OFFSET 2.196100 4.412489 0.087492
								CHANNELS 3 Xrotation Yrotation Zrotation
								JOINT LeftShoulder_split
								{
									OFFSET 2.196100 4.412489 0.087492
									CHANNELS 3 Xrotation Yrotation Zrotation
									JOINT LeftArm
									{
										OFFSET 8.771219 -2.981674 -0.026999
										CHANNELS 3 Xrotation Yrotation Zrotation
										JOINT LeftForeArm
										{
											OFFSET 8.512804 0.000000 -0.000000
											CHANNELS 3 Xrotation Yrotation Zrotation
											JOINT LeftHand
											{
												OFFSET 18.484802 0.000000 -0.000000
												CHANNELS 3 Xrotation Yrotation Zrotation
												End Site
												{
													OFFSET 0 0 0
												}
											}
										}
									}
								}
							}
						}
						JOINT RightShoulder_virtual
						{
							OFFSET 0.000000 0.000000 0.000000
							CHANNELS 3 Xrotation Yrotation Zrotation
							JOINT RightShoulder
							{
								OFFSET -2.196100 4.412496 0.070690
								CHANNELS 3 Xrotation Yrotation Zrotation
								JOINT RightShoulder_split
								{
									OFFSET -2.196100 4.412496 0.070690
									CHANNELS 3 Xrotation Yrotation Zrotation
									JOINT RightArm
									{
										OFFSET -8.771282 -2.981682 -0.094208
										CHANNELS 3 Xrotation Yrotation Zrotation
										JOINT RightForeArm
										{
											OFFSET -8.494598 0.000000 0.000000
											CHANNELS 3 Xrotation Yrotation Zrotation
											JOINT RightHand
											{
												OFFSET -18.483803 0.000000 0.000001
												CHANNELS 3 Xrotation Yrotation Zrotation
												End Site
												{
													OFFSET 0 0 0
												}
											}
										}
									}
								}
							}
						}
					}
				}
			}
		}
	}
}
MOTION
Frames: 5
Frame Time: 0.03333333
3.302973 18.342171 -11.987899 0.000000 0.000000 0.000000 64.724628 4.074517 1.339519 10.103329 11.804129 16.000022 7.605504 -7.693281 -13.475632 -49.366859 30.470898 -2.545737 -20.544376 -10.552226 -4.339456 0.000000 0.000000 0.000000 63.376663 -3.690971 4.087759 -1.347932 -18.771265 -13.235624 9.443211 9.528008 -0.757248 -43.008434 -29.766033 7.814731 -18.470565 -1.168348 5.945233 0.000000 0.000000 0.000000 72.292184 0.763627 0.013140 9.817648 2.456966 0.398606 -4.893427 -1.562692 1.834305 0.049911 0.439940 0.051813 0.000000 0.000000 0.000000 -2.778750 -0.088623 1.841224 -16.843593 11.318931 6.966552 -7.492691 -16.221218 -5.738167 0.000000 0.000000 0.000000 -3.238249 -0.840539 1.154455 1.358387 1.595823 3.339936 2.831614 0.886847 -4.332137 -42.126346 -64.267340 -49.167434 -2.400309 -14.168183 -2.218768 0.000000 0.000000 0.000000 -0.227386 -0.157992 1.766448 -2.841804 3.036074 11.905389 -3.881133 0.499891 3.248140 -47.917254 51.098018 53.668170 -28.217497 26.007561 14.239176 0.000000 0.000000 0.000000 
3.301270 18.300491 -11.982684 0.000000 0.000000 0.000000 64.467908 4.073635 1.493376 10.280999 11.976347 15.730564 7.258567 -7.603083 -13.526534 -49.892394 30.521728 -2.263443 -20.403197 -10.443717 -4.429652 0.000000 0.000000 0.000000 63.192439 -3.964979 4.340528 -1.593598 -18.917189 -13.435460 9.717567 9.581704 -0.649828 -42.979321 -29.460652 7.765237 -18.339819 -1.185955 6.003944 0.000000 0.000000 0.000000 72.418761 0.785795 0.261239 9.966472 2.507954 0.383064 -4.917246 -1.561439 1.846747 0.047391 0.413945 0.038617 0.000000 0.000000 0.000000 -2.740719 -0.087572 1.860137 -16.910287 11.279905 6.871924 -7.501782 -15.983312 -5.663778 0.000000 0.000000 0.000000 -3.238313 -0.849899 1.154056 1.417908 1.441383 3.438446 3.370564 0.826686 -4.064544 -42.944029 -63.961566 -49.868543 -2.350663 -14.337431 -2.238073 0.000000 0.000000 0.000000 -0.209017 -0.158161 1.830278 -2.764167 3.448261 11.889614 -3.741421 0.318817 3.079055 -48.402098 50.403682 53.634163 -28.148782 26.464698 14.419130 0.000000 0.000000 0.000000 
3.299397 18.257778 -11.997952 0.000000 0.000000 0.000000 64.269437 4.181866 1.548335 10.185378 12.123949 15.901958 6.896783 -7.661854 -13.823064 -49.679815 30.806475 -2.743823 -19.894987 -10.392274 -4.257904 0.000000 0.000000 0.000000 62.992130 -4.105956 4.467570 -1.780650 -19.211271 -13.704994 9.902322 9.648072 -0.492658 -42.884350 -28.841205 7.722702 -18.676515 -1.181437 6.094191 0.000000 0.000000 0.000000 72.475185 0.775306 0.545587 10.120985 2.599947 0.398621 -4.933028 -1.574934 1.859271 0.036429 0.379708 0.043081 0.000000 0.000000 0.000000 -2.679795 -0.098996 1.876965 -16.743164 11.240552 6.647790 -7.462234 -15.749440 -5.635646 0.000000 0.000000 0.000000 -3.187224 -0.877197 1.140616 1.462571 1.104298 3.700341 4.053174 1.013941 -3.822928 -43.197033 -63.889603 -50.185443 -2.061059 -14.943629 -2.100126 0.000000 0.000000 0.000000 -0.131976 -0.171082 1.890200 -2.752354 4.146889 11.848904 -3.698988 -0.003500 2.943689 -47.556691 49.306145 52.548255 -28.086788 28.237559 14.695663 0.000000 0.000000 0.000000 
3.297166 18.217602 -12.018600 0.000000 0.000000 0.000000 64.102090 4.441664 1.478028 9.864669 12.238222 16.424218 6.340095 -7.793692 -14.309823 -48.634181 31.234752 -3.810662 -19.611223 -10.409529 -3.838440 0.000000 0.000000 0.000000 62.844461 -4.086438 4.468936 -1.861889 -19.587451 -14.025554 10.023367 9.603984 -0.347362 -42.826919 -28.038138 7.567724 -19.420902 -1.171912 6.217964 0.000000 0.000000 0.000000 72.482200 0.739405 0.837922 10.249620 2.721385 0.451881 -4.922773 -1.613354 1.866660 0.019610 0.332614 0.053601 0.000000 0.000000 0.000000 -2.594960 -0.132554 1.892724 -16.365873 11.205101 6.306715 -7.459287 -15.526313 -5.663519 0.000000 0.000000 0.000000 -3.072598 -0.928565 1.114322 1.495502 0.642709 4.134308 4.691046 1.446483 -3.717953 -43.005156 -63.923932 -50.132649 -1.590517 -15.800734 -1.811612 0.000000 0.000000 0.000000 0.005334 -0.199887 1.943770 -2.814487 5.146649 11.745962 -3.734631 -0.355776 2.831775 -45.748856 47.867485 50.701054 -27.953695 30.975533 14.972932 0.000000 0.000000 0.000000 
3.295604 18.188972 -12.039662 0.000000 0.000000 0.000000 63.985813 4.854290 1.271112 9.515565 12.467117 17.082559 5.343438 -7.570496 -14.837041 -47.446968 31.507878 -4.510641 -19.979101 -10.497224 -3.278188 0.000000 0.000000 0.000000 62.770388 -3.966634 4.391677 -1.872008 -19.964848 -14.391357 10.149146 9.318484 -0.220619 -42.812794 -27.167701 7.235935 -20.268117 -1.149612 6.360835 0.000000 0.000000 0.000000 72.437339 0.744127 1.079091 10.319790 2.862403 0.552170 -4.872411 -1.694643 1.862034 -0.005970 0.270196 0.056461 0.000000 0.000000 0.000000 -2.457079 -0.198912 1.904680 -15.798458 11.175612 5.869763 -7.573264 -15.348309 -5.721006 0.000000 0.000000 0.000000 -2.872780 -1.013830 1.069765 1.514793 0.090107 4.712923 5.249918 1.978424 -3.776514 -42.479723 -63.907136 -49.637666 -1.053506 -16.691461 -1.417410 0.000000 0.000000 0.000000 0.214974 -0.251281 1.985331 -2.957204 6.462609 11.523504 -3.643404 -0.740522 2.632478 -43.560170 46.153180 48.446170 -27.697798 34.266714 15.156728 0.000000 0.000000 0.000000 
